<?xml version="1.0" encoding="utf-8"?>
<!-- Generator: Adobe Illustrator 26.5.0, SVG Export Plug-In . SVG Version: 6.00 Build 0)  -->
<svg version="1.1" id="Layer_1" xmlns="http://www.w3.org/2000/svg" xmlns:xlink="http://www.w3.org/1999/xlink" x="0px" y="0px"
	 viewBox="0 0 460.2 110.5" style="enable-background:new 0 0 460.2 110.5;" xml:space="preserve">
<path d="M106,67.9c0.2,1.7,0.3,3.4,0.3,5.1c0,2.5-0.3,5-1.1,7.4c-0.9,2.8-2.4,5.2-4.7,7.1c-2,1.6-4.2,2.6-6.7,3
	c-0.8,0.1-1.7,0.2-2.6,0.3c-1.1,0-2.2-0.1-3.2-0.4c-2.7-0.7-5.2-2-7.5-3.6c-2.1-1.5-4-3.3-5.8-5.1c-2.6-2.7-4.9-5.7-7-8.8
	c-3.5-5-6.5-10.3-9.2-15.7c-1.5-3-2.8-6-4.3-8.9c-2.8-5.7-5.7-11.3-9-16.7c-1.8-2.9-3.7-5.8-5.7-8.5c-1.2-1.5-2.4-3-3.7-4.4
	c-0.1-0.1-0.1-0.2-0.2-0.3c1.3-1.4,2.7-2.7,4.4-3.8c0.1,0.1,0.2,0.2,0.3,0.3c1.8,1.8,3.5,3.8,5.1,5.8c3.2,4.1,6,8.6,8.5,13.1
	c2.5,4.4,4.7,8.8,7,13.3c2,3.9,4,7.7,6.1,11.6c0.9,1.8,2,3.4,3.1,5.2c1.9,3.1,3.9,6.1,6,9.1c1.7,2.3,3.5,4.3,5.5,6.3
	c0.9,0.9,2,1.8,3,2.6c1.3,0.9,2.7,1.7,4.2,2.1c2.6,0.7,4.9,0.2,7.1-1.4c0.6-0.5,1.1-1.1,1.6-1.8c1.1-1.7,1.7-3.5,2.1-5.5
	c0.3-1.8,0.3-3.6,0.2-5.4c-0.2-3.2-0.8-6.4-1.6-9.6c-1.4-5.4-3.4-10.5-6.1-15.4c-1.8-3.3-3.6-6.6-5.4-9.9c-0.1-0.1-0.1-0.2-0.2-0.3
	h0.5c2.3,0,4.6,0,6.8,0c0.3,0,0.5,0.1,0.6,0.3c1.3,2.7,2.7,5.4,4,8c2.8,5.6,4.9,11.6,6.3,17.7C105.3,63.1,105.7,65.5,106,67.9z
	 M81.7,13.8c0.8-0.8,1.7-1.6,2.6-2.2c1.3-1,2.7-1.8,4.2-2.3c1.1-0.3,2.2-0.5,3.4-0.3c2.1,0.4,3.8,1.5,5.1,3.1
	c1.2,1.5,1.9,3.2,2.3,5.1c0.2,1,0.3,2.1,0.4,3.1c0.1,1.2,0,2.5-0.1,3.7c-0.1,0.7-0.2,1.5-0.2,2.2c-0.2,1.9-0.5,3.7-1,5.5
	c-0.5,1.7-1,3.4-1.5,5c-0.1,0.3-0.1,0.5,0.1,0.8c1.2,2.4,2.4,4.9,3.6,7.3c0,0.1,0.1,0.1,0.1,0.2c0.1-0.1,0.1-0.2,0.2-0.4
	c2.1-5.4,3.7-11,4.7-16.8c0.3-1.7,0.5-3.4,0.6-5c0.1-1.3,0.1-2.6,0-3.9c-0.1-1.5-0.3-3-0.6-4.5c-0.5-2.5-1.5-4.7-3-6.7
	c-1.3-1.7-2.9-3.2-4.8-4.2c-1.9-1-4-1.4-6.1-1.4c-1.2,0-2.3,0.1-3.4,0.3c-1.7,0.4-3.3,1.1-4.9,1.9c-2.6,1.5-4.9,3.3-7,5.4
	c0,0-0.1,0.1-0.1,0.1c1.7,1.4,3.3,2.8,5,4.2C81.4,14.1,81.6,13.9,81.7,13.8z M94.6,60.3c-0.3,0.6-0.6,1.2-0.9,1.8
	c-0.8,1.4-1.7,2.8-2.5,4.2c-0.1,0.1-0.2,0.2-0.1,0.4h7.2c-0.3-2.2-0.8-4.4-1.4-6.6c-0.1,0-0.2,0-0.3,0c-0.5,0-1,0-1.5,0
	C94.8,60,94.7,60.1,94.6,60.3z M98.2,26.8h-0.5H81c-2.6,0-5.2,0-7.8,0c-0.2,0-0.3,0-0.5,0.2c-1.1,2-2.3,4.1-3.4,6.1
	c0,0.1-0.1,0.2-0.1,0.3h27.5C97.4,31.3,97.9,29.1,98.2,26.8z M92.4,48.1c0-0.1-0.1-0.1-0.1-0.2c-0.1,0.1-0.1,0.2-0.2,0.3
	c-0.6,1.2-1.2,2.3-1.8,3.5c-1.8,3.3-3.5,6.5-5.5,9.7c-1.2,1.8-2.3,3.6-3.5,5.3c-1.2,1.8-2.6,3.5-4.1,5.1c-0.1,0.1-0.2,0.2-0.3,0.3
	c1.3,1.8,2.8,3.5,4.4,5.2c0.5-0.5,1-1,1.4-1.5c3.7-4.1,6.7-8.6,9.5-13.3c1.1-1.9,2.1-4,3.2-5.9c0.4-0.8,0.4-0.5,0.1-1.3
	C94.6,52.8,93.5,50.4,92.4,48.1z M29.1,80c-0.5,0.5-1,0.9-1.6,1.4c-2.5,2-5.3,3.3-8.5,3.5c-2.1,0.1-4-0.4-5.7-1.6
	c-1.4-1-2.4-2.3-3.3-3.9c-1.6-2.9-2-6-1.8-9.2c0.1-0.9,0.2-1.8,0.3-2.7c0.2-1.6,0.5-3.2,0.8-4.8c0.3-1.3,0.6-2.5,0.9-3.8
	c0.5-2.1,1.1-4.3,1.8-6.3c1.1-3.1,2.4-6.1,3.9-9.1c1.2-2.4,2.5-4.7,3.9-7c2-3.2,4.1-6.4,6.3-9.5c1.3-1.9,2.8-3.7,4.4-5.4
	c1.3-1.4,2.6-2.7,3.9-4c1-1,2-1.9,3.1-2.8c1.7-1.4,3.5-2.6,5.4-3.6c3.4-1.7,7-2.5,10.8-2.6c1.7-0.1,3.4,0.1,5.1,0.5
	c2.9,0.6,5.7,1.6,8.3,3.1c3.1,1.8,5.9,4.2,8.3,6.8c1.9,2,3.6,4.2,5.1,6.5c0.2,0.3,0.4,0.4,0.7,0.4c2,0,3.9,0,5.9,0h1.6
	c-0.1-0.1-0.1-0.2-0.2-0.3c-0.9-1.3-1.7-2.6-2.7-3.8c-1.8-2.4-3.7-4.7-5.8-6.7c-3.5-3.3-7.3-6.1-11.5-8.5c-4.1-2.4-8.5-3.8-13.2-4
	c-1.8-0.1-3.6,0-5.4,0.3c-2.4,0.4-4.6,1.1-6.8,2c-1.3,0.5-2.6,1.3-3.9,1.9c-2.4,1.3-4.6,2.8-6.6,4.5c-2.7,2.3-5.2,4.8-7.5,7.4
	c-2.4,2.7-4.6,5.5-6.7,8.4c-2.4,3.2-4.6,6.5-6.3,10.1c-1,2-2,4-2.9,6c-2,4.1-3.7,8.4-5.1,12.7c-1.5,4.7-2.5,9.5-2.7,14.4
	c-0.1,2.7,0.1,5.4,0.7,8c0.5,2,1.1,3.8,2.2,5.5c2.9,4.6,7.1,7,12.5,7.3c0.6,0,1.1,0,1.7-0.1c1.2-0.1,2.5-0.3,3.7-0.6
	c2.2-0.6,4.3-1.5,6.2-2.6c1.9-1.1,3.5-2.4,5.2-3.8c0,0,0.1-0.1,0.1-0.1c-1.6-1.2-3.2-2.4-4.6-3.9C29.2,80,29.1,80,29.1,80z
	 M72.9,66.3c0.1,0.2,0.3,0.3,0.5,0.3c2,0,4.1,0,6.1,0c0.3,0,0.5-0.1,0.7-0.3c1.3-2,2.6-4,3.9-6c0-0.1,0.1-0.1,0.1-0.2
	C83.8,60,69.3,60,69,60.1c0.1,0.1,0.1,0.2,0.2,0.3C70.4,62.4,71.7,64.4,72.9,66.3z M61.2,45.4c0,0.1,0.1,0.1,0.2,0.2
	c0.1-0.1,0.1-0.2,0.2-0.3c2.4-4.7,4.9-9.3,7.5-13.9c0.9-1.6,1.7-3.1,2.6-4.7c1.2-1.9,2.4-3.8,3.8-5.6c0.1-0.1,0.1-0.2,0.2-0.2
	c-0.5-0.9-4.1-4.4-4.8-4.7c-0.1,0.1-0.1,0.2-0.2,0.3c-1.8,2.3-3.4,4.6-5,7.1c-1.6,2.5-3,5.1-4.5,7.7c-1.2,2.2-2.4,4.5-3.5,6.7
	c-0.1,0.2-0.1,0.3,0,0.5C58.8,40.7,60,43,61.2,45.4z M70.1,78.3c-0.1,0.1-0.3,0.2-0.4,0.3c-1.9,1.3-3.9,2.4-6,3.2
	c-2.8,1.1-5.7,1.6-8.7,1.7c-0.9,0-1.8,0-2.7-0.1c-1.3,0-2.5-0.2-3.8-0.4c-2.3-0.4-4.4-1.2-6.4-2.3c-1.4-0.8-2.8-1.8-4-2.9
	c-3.2-2.8-6.2-5.9-8.9-9.3c-1.8-2.3-3.5-4.7-5.1-7.2c-3-4.5-5.8-9.1-8.4-13.7c-0.1-0.1-0.2-0.3-0.3-0.5c-0.1,0.2-0.2,0.3-0.2,0.5
	c-0.3,0.8-0.7,1.6-1,2.4c-0.6,1.4-1.1,2.8-1.5,4.3c-0.1,0.2,0,0.3,0.1,0.5c1.2,2.1,2.4,4.2,3.6,6.3c1.8,3.1,3.9,6.2,6,9.2
	c1.6,2.3,3.4,4.6,5.4,6.7c1.1,1.1,2.2,2.2,3.3,3.3c1.3,1.3,2.8,2.3,4.3,3.3c5.3,3.6,11.1,5.6,17.6,5.8c1.7,0.1,3.3,0.1,5-0.1
	c1.5-0.2,2.9-0.4,4.3-0.7c4.3-0.9,8.3-2.7,12-5.2c0.1-0.1,0.2-0.1,0.3-0.2c-1.5-1.6-3-3.1-4.2-4.8C70.2,78.3,70.2,78.3,70.1,78.3z
	 M54.6,60.3c-1.1,2.1-2.3,4.1-3.6,6.1c0,0.1-0.1,0.1-0.1,0.3c3.8,0,7.6,0,11.5,0c-0.1-0.2-0.1-0.3-0.2-0.4c-1.1-2-2.2-4-3.3-6
	c-0.1-0.2-0.2-0.2-0.4-0.2c-1.1,0-2.2,0-3.3,0C54.8,60,54.7,60.1,54.6,60.3z M58.7,33.1c1.1-2,2.2-4,3.3-5.9c0-0.1,0.1-0.2,0.1-0.3
	H51c0.1,0.1,0.1,0.2,0.1,0.2c1.2,2,2.4,4.1,3.6,6.1c0.1,0.2,0.2,0.2,0.4,0.2c1,0,2,0,3.1,0C58.5,33.4,58.6,33.3,58.7,33.1z M53,48.2
	c0-0.1-0.1-0.2-0.2-0.3c-0.1,0.1-0.1,0.1-0.1,0.2c-0.3,0.6-0.6,1.1-0.9,1.7c-2.3,4.4-4.8,8.7-7.5,12.8c-2.5,3.8-5.3,7.5-8.5,10.8
	c-0.1,0.1-0.1,0.1-0.2,0.2c0.4,0.6,4.1,4,4.8,4.3c0.1-0.1,0.1-0.2,0.2-0.3c1.6-1.6,3.1-3.3,4.5-5.1c1.9-2.4,3.8-4.9,5.4-7.5
	c2-3.1,3.7-6.4,5.5-9.7c0.1-0.2,0.1-0.4,0-0.6C55,52.5,54,50.4,53,48.2z M41,27.1c-0.1-0.2-0.3-0.3-0.6-0.3c-2.3,0-4.6-0.1-6.9-0.1
	c-1.7,0-3.4-0.1-5.1-0.1c-0.3,0-0.4,0.1-0.6,0.3c-1.4,2-2.8,4.1-4.2,6.1c0,0.1-0.1,0.2-0.1,0.2c0.4,0.1,21,0.2,21.5,0.1
	c-0.1-0.1-0.1-0.3-0.2-0.4C43.6,31.1,42.3,29.1,41,27.1z M40.2,66.4c0.6-0.9,1.3-1.8,1.9-2.7c0.7-1.1,1.4-2.2,2.1-3.2
	c0.1-0.1,0.1-0.2,0.2-0.4H24.8c0.1,0.1,0.1,0.2,0.1,0.2c1.4,2,2.8,4.1,4.2,6.1c0.1,0.2,0.3,0.3,0.5,0.3c3.3,0,6.6,0,9.9,0
	C39.9,66.6,40.1,66.6,40.2,66.4z M3.5,32c0.8,4.2,2.1,8.2,3.7,12.2c0,0.1,0.1,0.2,0.2,0.4c0.1-0.2,0.1-0.3,0.2-0.3
	c1.1-2.2,2.1-4.4,3.2-6.5c0.1-0.2,0.1-0.4,0-0.6c-0.2-0.7-0.4-1.3-0.6-2c-0.5-1.7-0.9-3.5-1.2-5.2c-0.3-2-0.5-4-0.6-6
	c-0.1-2,0-4,0.4-6c0.4-2.1,1.2-4.1,2.6-5.9C13,9.8,15.2,8.7,18,8.7c1.2,0,2.4,0.2,3.5,0.6c2.2,0.7,4.2,1.7,6.1,2.9
	c0.5,0.3,0.9,0.6,1.4,0.9c1.5-1.3,2.9-2.5,4.4-3.8C33.2,9.1,33.2,9,33.1,9c-0.9-0.6-1.8-1.2-2.7-1.8c-1.6-1.1-3.4-2.1-5.2-2.8
	c-2.1-0.9-4.3-1.4-6.6-1.6c-2.1-0.2-4.2,0.1-6.3,0.8c-2.1,0.6-3.9,1.6-5.5,3.2C5.1,8.3,4,10.3,3.2,12.5c-0.8,2.4-1.1,4.8-1.1,7.3
	c0,2.2,0.1,4.3,0.4,6.5C2.8,28.1,3.1,30,3.5,32z M11,60.4c-0.5,1.8-0.9,3.7-1.2,5.6c0,0.2-0.1,0.4-0.1,0.7c2.9,0,5.8,0,8.8-0.1
	c-0.1-0.1-0.1-0.2-0.2-0.3c-0.3-0.5-0.6-0.9-0.9-1.4c-0.9-1.5-1.9-3-2.7-4.5c-0.2-0.3-0.4-0.5-0.8-0.4c-0.8,0-1.6,0-2.4,0
	C11.2,59.9,11.1,59.9,11,60.4z M11.7,26.6c-0.6,0-1.2,0-1.8,0.1c-0.1,0-0.2,0-0.3,0c0.2,2.1,0.5,4.2,1.1,6.3c0.9,0,1.7-0.1,2.6-0.1
	c1.2-2.2,2.7-4.3,4.2-6.3c0,0,0,0,0,0c0,0,0,0,0,0c-0.1,0-0.1,0-0.2,0C15.4,26.5,13.5,26.5,11.7,26.6z M215.3,76.7
	c1.4,7.8,2.3,9.8,5.6,15.4v0.2h-17v-0.2c2.3-3.3,2.9-5.3,2.9-7.6c0-1.4-0.2-3-1.1-7.9l-3.4-18.3h-18.1L182,70
	c-0.7,3.9-2.8,14.7-2.8,14.7l-0.1,7.3v0.2h-6.9v-0.2c3.8-8.5,5-11.6,7-22l13.4-68h8.1L215.3,76.7z M202.1,56.5l-8.7-45.2l-8.9,45.2
	H202.1z M458.7,92.1v0.2h-17v-0.2c2.3-3.3,2.9-5.3,2.9-7.6c0-1.4-0.2-3-1.1-7.9l-3.4-18.3H422L419.8,70c-0.7,3.9-2.8,14.7-2.8,14.7
	l-0.1,7.3v0.2h-6.9v-0.2c3.8-8.5,5-11.6,7-22l13.4-68h8.1l14.5,74.7C454.6,84.4,455.5,86.5,458.7,92.1z M439.9,56.5l-8.7-45.2
	l-8.9,45.2H439.9z M396.6,3.1h1.4c3,0,9.3-0.4,16.9,6.5h0.2L414.4,2h-44.5l-0.7,7.5h0.2c9.1-7.6,13.8-6.5,16.9-6.5h1.4v78.1
	c0,4.3-0.5,6.2-3.6,10.9v0.2h16.1v-0.2c-3-4.7-3.6-6.5-3.6-10.9V3.1z M238.1,89V13l0.1-11h-1.5h-9.7v0.2c2.9,4.5,2.2,6.5,2.2,10.9
	v68.2c0,4.4-0.2,6.2-2.1,10.9v0.2h34.2l1.3-7.8h-0.2C250,90.3,238.1,89,238.1,89z M320.9,13c0-4.3-0.5-6.4,2.3-10.9V2h-13.6v0.2
	c2.9,4.5,2.3,6.5,2.3,10.9v68.2c0,4.3-0.1,6.4-3,10.9v0.2h14.9v-0.2c-2.9-4.5-3-6.5-3-10.9V13z M156.7,1.6c4.7,0,10.1,2.5,15.1,14.6
	l-0.2-3.9l-1.1-9.9c-4.1-1.5-8.1-2.4-13.3-2.4c-16,0-26.4,17.5-26.4,46.4V49c0,28.9,9.1,44.1,25.1,44.1c5.2,0,9.9-2.2,13.3-4.7
	l1.4-11.5h-0.2c-5.2,12-10.4,14.6-15.1,14.6c-11.5,0-14.3-17.5-14.3-43.9C141.1,21.4,145.2,1.6,156.7,1.6z M339.7,14.9
	c0-7.8,3.1-12.4,9.4-12.4c3,0,8.2-0.3,14.6,7.7l-0.2-6.9c-4.3-1.4-10.2-2.2-14.7-2.2c-10.9,0-17.2,7.1-17.2,18
	c0,10.6,5.2,19.7,12.7,30.9c7.5,11.3,12.9,17.4,12.9,27.3c0,9-4.3,14.3-10.2,14.3c-4.5,0-7.2,0.2-16.7-12.2h-0.2l2.2,10.5
	c4.5,1.9,10.2,3.3,15.1,3.3c11.1,0,17.8-8.2,17.8-20.2c0-11.6-5.2-17.9-12.9-29.4C345.1,32.9,339.7,23.4,339.7,14.9z M278.8,89V13
	l0.1-11h-1.5h-9.7v0.2c2.9,4.5,2.2,6.5,2.2,10.9v68.2c0,4.4-0.2,6.2-2.1,10.9v0.2H302l1.3-7.8H303C290.8,90.3,278.8,89,278.8,89z"/>
</svg>
