<svg viewBox="0 0 1528 497" version="1.1" xmlns="http://www.w3.org/2000/svg">
  <defs>
    <style>
      .cls-1 {
        fill: none;
      }
    </style>
  </defs>
  
  <g>
    <g id="Layer_1">
      <rect height="497" width="1528" y="0" class="cls-1"></rect>
      <g>
        <path d="M578.3,436.5c-1.2-1-2.6-1.8-4.1-2.4-4.6-2-10.4-2.8-15.5-2.8h-22.3v68.9h11.6v-27.7h11.6c8.2,0,19.9-2.3,23.1-11.2,1.5-4.3,1.4-9.8.6-14.3-.8-4.2-1.8-8-4.9-10.5ZM567.9,460.2c-2.7,1-5.8.7-8.6.7h-10.5v-20.6c6.2,0,12.8-.9,18.7,1.4,1,.4,2,.8,2.7,1.5,1.2,1,1.8,2.5,2.2,4,1.2,4.6.5,11.1-4.6,13,0,0,0,0,0,0h0ZM692.4,498.5l-21.4-68.9h-12.5l-21.4,68.9h11.6l4.5-17h22.3l5.4,17h11.6,0ZM665.7,443.9l8.9,27.7h-16.9l8.9-27.7h-.9ZM779.6,470.1c2-.2,6-1.5,6.5-1.8,2.6-1.2,5.4-2.9,7.3-5.1,3.9-4.6,4.6-11,3.6-16.9-.4-2.5-1.4-4.9-2.9-6.9-1.1-1.4-1.2-1.6-4.1-3.7-4.5-2.7-10.2-4.4-19.1-4.4h-22.3v68.9h11.6v-27.7h5.4l18.7,27.7h14.3c-1.4-2.9-19.9-28.1-20.5-29.9,0,.2,1.1-.2,1.6-.3h0ZM781.5,458c-1.2.8-2.6,1.3-4.1,1.6-.9.2-17.2.6-17.2.4v-19.6h11.6c9.6-.6,15.1,4.4,13.4,12.2-.4,1.8-2.3,4.5-3.7,5.4ZM893.9,488.6h-11.6v-49.2h11.6v-9.8h-33.9v9.8h11.6v49.2h-11.6v9.8h33.9v-9.8ZM988.5,459.1c-3.9-1.3-7.8-2.8-11.5-4.6-3.4-1.8-7.8-3.9-6.8-8.5,1.2-5.5,6.1-7.4,11.1-7.4s6.4,1.7,8.1,2.8c2.7,2.7,4.4,5.2,4.4,9.7h9.8v-20.6h-11.6v4.2c-2-3.1-4.3-4.2-7.9-5.3-7.3-2.2-17.1-.3-22.2,6.4-1.3,1.7-2.1,3.4-2.7,5.4-1.2,3.7-1.6,7.8.1,11.4,1.6,3.3,4.2,5.9,7.1,8,4.8,3.4,10.6,5.5,16.1,7.5,2.7,1,5.5,1.9,7.6,3.9,3.6,3.3,3.5,8.8,0,12.2-1.8,1.8-4.5,2.7-8.9,2.7-7.1,0-14.3-7.2-14.3-14.3h-9.8v22.4h9.8v-4c0-.1.1-.1.2,0,.7,1.1,3.2,2.7,4,3.2,1.7,1.1,3.5,1.5,5.5,2,10.6,2.7,25.2-3.5,28.1-14.8.5-1.9.6-3.9.4-5.8,0-.1,0-.3,0-.4-.6-4.7-3.2-8.9-7.1-11.5-1.5-1-3.1-1.9-6-3.1l-3.7-1.4h0Z"></path>
        <path d="M127.4,86.5c32,0,56.9,28.8,74.3,68h1.1l-2.7-75.1c-7,6-11.9,9.2-20.6,9.2s-27.6-9.2-56.9-9.2C55.8,79.4,0,125.1,0,194.2s48.2,111.5,117.1,111.5,46.9-8.2,53.7-14.4c6.2-5.6,9.8-8.7,16.8-17.2l27.6,31.6v-69.1c0-20.7,3.3-28.3,17.3-37.5v-1.1h-93.2v1.1c14.6,9.2,17.3,16.9,17.3,37.5v16.9c0,28.3-14.6,44.1-39.6,44.1s-53.7-45.2-53.7-103.9c1.1-65.3,23.3-108.3,64-108.3v1.1ZM417.9,152.9l36.3,75.6h-70.5l34.7-75.6h-.5,0ZM383.8,302c-11.9-4.9-17.3-13.6-17.3-23.9s1.6-10.9,4.3-16.9l11.4-23.9h79.1l13.5,28.8c3.3,7.1,5.4,12,5.4,18s-4.3,12-13.5,18v1.1h100.8v-1.1c-11.4-7.6-16.3-15.2-26-34.8l-94.9-187.2h-1.1l-90,184.4c-9.8,19.6-17.9,30.5-30.3,38.1v1.1l58-1.6h.5,0ZM830.4,73.4h3.3C811.4,52.8,785.4,21.8,775.1,0h-1.1c-10.3,21.2-36.3,52.8-58.5,73.4h3.3c21.7-6,41.2-15.2,55.8-25.6,13.5,10.3,33.6,19.6,55.3,25.6h.5,0ZM750.2,152.9l36.3,75.6h-71l34.7-75.6h0ZM713.9,302c-11.9-4.9-17.3-13.6-17.3-23.9s1.6-10.9,4.3-16.9l11.4-23.9h79.1l13.5,28.8c3.3,7.1,5.4,12,5.4,18s-4.3,12-13.5,18v1.1h100.8v-1.1c-11.4-7.6-16.3-15.2-26-34.8l-94.9-187.2h-1.1l-87.8,184.4c-9.8,19.6-17.9,30.5-30.4,38.1v1.1l55.8-1.6h.5ZM997.9,82.2c13.5,9.2,17.3,16.9,17.3,38.1v143.6c0,20.7-3.2,28.8-17.3,37.5v1.1h182.7l11.9-71.3h-1.1c-23.3,40.8-36.9,63.1-79.1,63.1h-36.3V120.8c0-20.7,3.2-28.3,17.4-37.5v-1.1h-95.9.5,0ZM1381.6,152.9l36.3,75.6h-71l34.7-75.6h0ZM1344.2,302c-11.9-4.9-17.3-13.6-17.3-23.9s1.6-10.9,4.3-16.9l11.4-23.9h79.1l13.6,28.8c3.2,7.1,5.4,12,5.4,18s-4.3,12-13.5,18v1.1h100.8v-1.1c-11.4-7.6-16.3-15.2-26-34.8l-94.9-187.2h-1.1l-87.8,184.4c-9.8,19.6-17.9,30.5-30.3,38.1v1.1l55.8-1.6h.6Z"></path>
      </g>
    </g>
  </g>
</svg>